<?xml version="1.0" standalone="no"?>
<!DOCTYPE svg PUBLIC "-//W3C//DTD SVG 20010904//EN"
 "http://www.w3.org/TR/2001/REC-SVG-20010904/DTD/svg10.dtd">
<svg version="1.0" xmlns="http://www.w3.org/2000/svg"
 width="608.000000pt" height="608.000000pt" viewBox="0 0 608.000000 608.000000"
 preserveAspectRatio="xMidYMid meet">
<metadata>
Created by potrace 1.14, written by Peter Selinger 2001-2017
</metadata>
<g transform="translate(0.000000,608.000000) scale(0.100000,-0.100000)"
fill="#000000" stroke="none">
<path d="M2935 6062 c-45 -15 -135 -60 -207 -101 -14 -9 -48 -28 -75 -42 -26
-15 -133 -77 -238 -138 -247 -145 -307 -206 -353 -355 -13 -45 -15 -178 -16
-1066 -1 -564 2 -1030 7 -1050 11 -43 32 -59 75 -60 40 0 70 14 100 49 13 14
38 42 55 62 18 20 50 57 72 83 22 27 47 56 55 66 8 9 35 41 60 70 25 29 52 60
60 69 8 10 51 59 95 111 44 52 84 100 90 106 5 6 30 35 55 64 25 30 56 66 70
81 14 15 36 41 50 59 14 17 32 39 41 48 8 9 40 46 70 81 30 35 65 76 78 90 13
14 35 41 50 60 14 19 35 44 46 56 11 11 40 45 65 75 25 30 52 61 60 70 8 8 35
40 60 70 25 30 52 61 60 70 8 9 33 38 55 64 22 27 45 54 52 61 6 6 35 41 64
76 30 35 63 75 75 89 12 14 54 63 94 110 40 47 82 96 94 110 97 114 120 144
141 187 38 79 23 158 -44 223 -22 22 -148 100 -161 100 -5 0 -10 4 -10 8 0 4
-30 25 -67 45 -38 21 -75 42 -83 47 -154 97 -433 246 -475 255 -73 16 -170 15
-220 -3z"/>
<path d="M4533 5171 c-57 -22 -101 -63 -253 -236 -73 -82 -144 -163 -159 -180
-26 -29 -237 -276 -276 -324 -11 -13 -27 -31 -35 -40 -8 -9 -42 -50 -75 -91
-33 -41 -63 -77 -66 -80 -3 -3 -45 -52 -93 -110 -136 -164 -150 -180 -167
-198 -50 -54 -236 -278 -253 -305 -58 -91 -77 -175 -57 -243 13 -43 52 -133
63 -149 27 -36 98 -149 98 -155 0 -5 4 -10 8 -12 7 -3 69 -90 97 -136 6 -9 22
-33 38 -53 15 -20 27 -41 27 -47 0 -6 4 -12 8 -14 6 -2 137 -192 219 -318 12
-19 27 -40 32 -46 4 -6 26 -37 47 -70 21 -32 41 -61 44 -64 3 -3 37 -52 76
-110 153 -228 219 -325 227 -335 4 -5 89 -131 189 -280 100 -148 185 -271 190
-273 4 -2 8 -10 8 -18 0 -8 5 -14 10 -14 6 0 10 -5 10 -10 0 -9 35 -65 50 -80
3 -3 17 -23 31 -45 91 -138 211 -176 344 -109 54 27 262 147 340 195 17 10 48
28 70 40 22 12 51 29 65 39 14 10 57 38 95 63 117 76 171 139 210 247 20 54
20 80 20 1435 0 759 -3 1392 -7 1406 -21 86 -103 194 -196 256 -106 72 -465
283 -482 283 -5 0 -10 3 -10 8 0 4 -10 12 -23 18 -34 16 -111 58 -117 64 -3 3
-16 11 -30 17 -14 7 -47 25 -75 41 -85 48 -171 60 -242 33z"/>
<path d="M1275 5124 c-28 -14 -57 -31 -65 -38 -8 -7 -37 -26 -65 -42 -27 -15
-52 -31 -55 -34 -9 -10 -211 -124 -365 -205 -49 -26 -99 -56 -111 -66 -11 -10
-23 -19 -27 -19 -8 0 -93 -86 -120 -121 -32 -42 -74 -142 -91 -214 -14 -62
-16 -210 -15 -1336 1 -969 4 -1281 13 -1332 7 -37 11 -67 8 -67 -2 0 2 -7 9
-17 8 -9 13 -18 12 -19 -7 -10 41 -114 67 -147 53 -67 133 -129 225 -174 37
-18 104 -54 200 -108 22 -13 108 -62 190 -111 255 -149 295 -163 365 -127 73
37 67 -144 66 2107 l-1 2026 -32 32 c-29 28 -39 32 -95 34 -51 2 -73 -2 -113
-22z"/>
<path d="M2534 2981 c-48 -22 -98 -71 -206 -201 -43 -51 -78 -89 -78 -84 0 13
-102 -137 -127 -187 -27 -53 -61 -154 -69 -206 -10 -60 -11 -1562 -1 -1618 9
-50 42 -138 62 -163 45 -59 115 -118 200 -169 55 -33 107 -63 115 -67 8 -3 29
-15 45 -26 17 -10 63 -38 104 -62 41 -24 86 -50 100 -58 99 -59 204 -110 247
-123 62 -18 169 -19 234 -2 43 11 158 64 185 85 6 4 30 18 55 32 124 68 170
94 229 130 34 21 65 38 67 38 3 0 21 11 42 24 20 13 93 56 162 96 172 100 220
138 253 197 23 43 26 59 23 109 -4 53 -34 141 -58 168 -5 6 -49 72 -98 146
-49 74 -93 140 -97 145 -28 35 -93 137 -93 144 0 5 -3 11 -8 13 -4 2 -34 43
-67 93 -33 49 -64 94 -68 100 -32 41 -457 687 -457 694 0 5 -4 11 -8 13 -4 2
-105 150 -224 329 -220 330 -258 381 -306 407 -44 23 -112 25 -158 3z"/>
</g>
</svg>
