<svg width="67" height="76" viewBox="0 0 67 76" fill="none" xmlns="http://www.w3.org/2000/svg">
<g clip-path="url(#clip0_329_327)">
<path d="M66.9727 37.893C66.9727 43.1911 66.94 48.4947 66.9727 53.7983C67.0277 54.8093 66.8054 55.816 66.3303 56.7087C65.8551 57.6014 65.1452 58.3458 64.2781 58.8606C61.9217 60.3414 59.5216 61.7509 57.0997 63.1111C55.4633 64.038 53.9251 63.6596 52.8287 62.091C50.2541 58.356 47.7231 54.5716 45.1649 50.8092L36.001 37.2951C35.7937 36.9935 35.581 36.6918 35.3846 36.3792C33.5245 33.3682 33.7482 32.1616 36.0501 29.507C39.0174 26.123 41.8375 22.6074 44.7776 19.1741C46.714 16.8925 48.6668 14.6328 50.6741 12.4225C51.9887 10.9691 53.5214 10.7771 55.2069 11.7644C58.1797 13.4756 61.2071 15.1319 64.1035 16.9528C65.9036 18.0771 67.0709 19.6567 67.0327 22.0096C66.9236 27.2913 66.9727 32.5894 66.9727 37.893Z" fill="#E9C46A"/>
<path d="M14.4713 38.0905V62.0034C14.4713 62.8151 14.6131 63.7036 13.6749 64.1588C12.7367 64.614 12.0385 64.2959 11.2476 63.8352C8.72751 62.3763 6.24562 60.879 3.67646 59.5627C0.900024 58.1367 0.0490922 55.6522 0.0327282 52.8057C-0.0163641 42.9334 0.0327282 33.0612 0 23.2218C0 19.7446 1.49459 17.4301 4.60376 15.9054C6.81958 14.7687 8.97693 13.5203 11.0676 12.1649C11.4285 11.8939 11.8505 11.717 12.2959 11.65C12.7414 11.5831 13.1964 11.628 13.6204 11.781C14.5531 12.1649 14.4713 13.0808 14.4713 13.9035V38.0905Z" fill="#2A9D8F"/>
<path d="M21.066 57.2592C21.066 54.6704 21.1642 52.0762 21.066 49.493C20.9742 48.1622 21.164 46.827 21.6228 45.5753C22.0816 44.3236 22.7991 43.1839 23.7279 42.2314C24.4589 41.4581 25.1243 40.6244 25.8171 39.8182C27.388 37.9863 29.0899 38.0576 30.4427 40.0705C32.9354 43.7726 35.3846 47.5076 37.861 51.2206C40.8611 55.718 43.8612 60.2044 46.8831 64.7073C48.3231 66.9011 47.974 68.5465 45.754 69.8628C42.6957 71.691 39.6156 73.4698 36.5137 75.1993C35.6072 75.7346 34.5729 76.0118 33.5217 76.0012C32.4705 75.9906 31.4419 75.6925 30.5463 75.1389C28.3062 73.8702 26.0825 72.5703 23.8752 71.2394C22.9888 70.7592 22.2544 70.0382 21.7558 69.1587C21.2572 68.2792 21.0144 67.2764 21.0551 66.2649C21.0988 63.2593 21.066 60.2592 21.066 57.2592Z" fill="#E76F51"/>
<path d="M21.0769 21.5271V9.9491C21.0229 8.91659 21.2567 7.88941 21.7521 6.98335C22.2474 6.07729 22.9847 5.32837 23.8807 4.82101C26.2971 3.37307 28.7244 1.93611 31.2172 0.614325C31.9405 0.216575 32.7506 0.00537498 33.575 -0.000367943C34.3994 -0.00611087 35.2123 0.193783 35.941 0.581417C38.7283 2.07871 41.483 3.70763 44.2103 5.36398C45.9776 6.4609 46.2122 7.98013 44.8594 9.58712C41.3302 13.7828 37.7683 17.9456 34.1955 22.1139C30.6227 26.2822 27.0662 30.4505 23.5043 34.6243C23.0515 35.1727 22.5388 35.5786 21.8242 35.3647C21.0169 35.1234 21.0824 34.383 21.0769 33.7193V21.5271Z" fill="#264653"/>
</g>
<defs>
<clipPath id="clip0_329_327">
<rect width="67" height="76" fill="white"/>
</clipPath>
</defs>
</svg>
