<svg width="216" height="102" viewBox="0 0 216 102" fill="none" xmlns="http://www.w3.org/2000/svg">
<path d="M120.958 96.0515H81.0461V97.1633H120.958V96.0515Z" fill="#333333"/>
<path d="M210.099 96.0515H170.187V97.1633H210.099V96.0515Z" fill="#333333"/>
<path d="M124.956 99.0709L124.289 99.8492C124.678 100.249 125.134 100.561 125.656 100.794C126.179 101.028 126.746 101.139 127.357 101.139C127.824 101.139 128.236 101.083 128.603 100.95C128.969 100.816 129.281 100.639 129.536 100.416C129.792 100.194 129.992 99.927 130.126 99.6268C130.27 99.3155 130.337 98.9931 130.337 98.6485C130.337 98.3261 130.292 98.0481 130.192 97.8035C130.103 97.559 129.981 97.3477 129.814 97.1587C129.659 96.9808 129.47 96.8141 129.247 96.6807C129.025 96.5473 128.78 96.425 128.536 96.3138L127.291 95.7801C127.113 95.7134 126.946 95.6356 126.779 95.5467C126.601 95.4577 126.446 95.3688 126.312 95.2576C126.168 95.1464 126.057 95.013 125.968 94.8685C125.879 94.724 125.845 94.535 125.845 94.3238C125.845 93.9235 125.99 93.6122 126.29 93.3899C126.59 93.1564 126.979 93.0452 127.469 93.0452C127.88 93.0452 128.247 93.1231 128.569 93.2676C128.892 93.4121 129.192 93.6122 129.459 93.8679L130.059 93.1564C129.748 92.834 129.37 92.5672 128.925 92.3671C128.48 92.167 127.991 92.0669 127.469 92.0669C127.068 92.0669 126.701 92.1336 126.368 92.2448C126.034 92.356 125.745 92.5227 125.501 92.7339C125.256 92.9452 125.067 93.1898 124.923 93.4677C124.789 93.7568 124.723 94.068 124.723 94.3905C124.723 94.7129 124.778 94.9908 124.878 95.2354C124.989 95.48 125.123 95.6912 125.29 95.8691C125.467 96.047 125.656 96.2026 125.868 96.3249C126.079 96.4472 126.29 96.5584 126.49 96.6473L127.746 97.1921C127.958 97.2921 128.147 97.3811 128.325 97.47C128.502 97.559 128.658 97.659 128.78 97.7702C128.914 97.8814 129.014 98.0148 129.092 98.1704C129.17 98.3261 129.203 98.5151 129.203 98.7374C129.203 99.171 129.047 99.5156 128.725 99.7713C128.402 100.038 127.958 100.172 127.38 100.172C126.924 100.172 126.479 100.072 126.057 99.8714C125.634 99.6713 125.267 99.4045 124.956 99.0709ZM132.06 92.2337V100.983H133.161V96.8585H137.23V100.983H138.353V92.2337H137.23V95.9024H133.161V92.2337H132.06ZM140.754 92.2337V100.983H145.935V100.038H141.866V96.8585H145.19V95.9136H141.866V93.1675H145.801V92.2337H140.754ZM147.791 92.2337V100.983H152.961V100.038H148.892V96.8585H152.216V95.9136H148.892V93.1675H152.828V92.2337H147.791ZM156.63 93.1675V100.983H157.753V93.1675H160.399V92.2337H153.995V93.1675H156.63ZM161.477 99.0709L160.81 99.8492C161.188 100.249 161.644 100.561 162.166 100.794C162.689 101.028 163.267 101.139 163.878 101.139C164.334 101.139 164.757 101.083 165.112 100.95C165.479 100.816 165.791 100.639 166.046 100.416C166.313 100.194 166.502 99.927 166.647 99.6268C166.78 99.3155 166.847 98.9931 166.847 98.6485C166.847 98.3261 166.802 98.0481 166.713 97.8035C166.613 97.559 166.491 97.3477 166.335 97.1587C166.169 96.9808 165.98 96.8141 165.757 96.6807C165.535 96.5473 165.301 96.425 165.046 96.3138L163.812 95.7801C163.634 95.7134 163.456 95.6356 163.289 95.5467C163.122 95.4577 162.967 95.3688 162.822 95.2576C162.678 95.1464 162.567 95.013 162.478 94.8685C162.4 94.724 162.355 94.535 162.355 94.3238C162.355 93.9235 162.5 93.6122 162.8 93.3899C163.1 93.1564 163.489 93.0452 163.978 93.0452C164.39 93.0452 164.757 93.1231 165.079 93.2676C165.413 93.4121 165.702 93.6122 165.969 93.8679L166.569 93.1564C166.258 92.834 165.88 92.5672 165.435 92.3671C164.99 92.167 164.512 92.0669 163.978 92.0669C163.578 92.0669 163.211 92.1336 162.878 92.2448C162.544 92.356 162.255 92.5227 162.011 92.7339C161.766 92.9452 161.577 93.1898 161.444 93.4677C161.299 93.7568 161.232 94.068 161.232 94.3905C161.232 94.7129 161.288 94.9908 161.399 95.2354C161.499 95.48 161.644 95.6912 161.811 95.8691C161.977 96.047 162.166 96.2026 162.378 96.3249C162.6 96.4472 162.8 96.5584 163.011 96.6473L164.268 97.1921C164.468 97.2921 164.657 97.3811 164.835 97.47C165.012 97.559 165.168 97.659 165.301 97.7702C165.424 97.8814 165.524 98.0148 165.602 98.1704C165.679 98.3261 165.713 98.5151 165.713 98.7374C165.713 99.171 165.557 99.5156 165.235 99.7713C164.912 100.038 164.468 100.172 163.89 100.172C163.434 100.172 163 100.072 162.578 99.8714C162.155 99.6713 161.788 99.4045 161.477 99.0709Z" fill="#333333"/>
<path d="M75.4874 38.2441V27.8938H116.9V38.2441H101.618V85.4006H90.7692V38.2441H75.4874ZM126.345 85.4006V27.8938H137.195V51.3908H155.76V27.8938H166.609V85.4006H155.76V61.7411H137.195V85.4006H126.345ZM178.352 85.4006V27.8938H214.671V38.2441H189.201V51.3908H213.685V61.7411H189.201V75.0503H215.657V85.4006H178.352Z" fill="#333333"/>
<path d="M79.9344 14.4083V24.0917H75.4874V0.478054H79.9344V10.1614H80.9128L87.1608 0.478054H92.1859V0.678169L84.8928 11.9847V12.585L92.5862 23.8916V24.0917H87.3609L80.9128 14.4083H79.9344ZM95.9659 4.72495V0.478054H111.753V4.72495H106.083V19.8448H111.753V24.0917H95.9659V19.8448H101.625V4.72495H95.9659ZM124.571 20.5118C125.424 20.5118 126.128 20.3821 126.684 20.1227C127.232 19.8707 127.658 19.5224 127.962 19.0777C128.266 18.6404 128.474 18.1364 128.585 17.5657C128.696 16.9876 128.751 16.3983 128.751 15.798V15.1865H133.21V15.798C133.21 18.607 132.472 20.7712 130.997 22.2906C129.522 23.8026 127.38 24.5586 124.571 24.5586C121.873 24.5586 119.735 23.7396 118.156 22.1016C116.585 20.4562 115.8 18.0623 115.8 14.9197V9.65001C115.8 8.14544 116.003 6.79281 116.411 5.59211C116.811 4.38401 117.393 3.36861 118.156 2.54591C118.927 1.73063 119.85 1.10434 120.925 0.667052C122.007 0.222351 123.222 0 124.571 0C125.965 0 127.202 0.20382 128.285 0.611463C129.359 1.01911 130.263 1.60463 130.997 2.36803C131.731 3.13143 132.283 4.05419 132.654 5.1363C133.024 6.21099 133.21 7.4228 133.21 8.77172V9.38319H128.751V8.77172C128.751 8.20844 128.685 7.64885 128.551 7.09298C128.418 6.52969 128.192 6.02199 127.873 5.56988C127.562 5.11777 127.136 4.75089 126.595 4.46924C126.054 4.1876 125.379 4.04678 124.571 4.04678C123.83 4.04678 123.189 4.1876 122.648 4.46924C122.107 4.75089 121.658 5.13629 121.303 5.62546C120.94 6.10722 120.673 6.66681 120.502 7.30421C120.339 7.94903 120.258 8.61978 120.258 9.31648V15.2532C120.258 16.0166 120.336 16.7208 120.491 17.3656C120.647 18.003 120.895 18.5588 121.236 19.0332C121.57 19.5075 122.011 19.8707 122.559 20.1227C123.115 20.3821 123.786 20.5118 124.571 20.5118ZM141.881 14.4083V24.0917H137.423V0.478054H141.881V10.1614H142.86L149.097 0.478054H154.122V0.678169L146.84 11.9847V12.585L154.533 23.8916V24.0917H149.297L142.86 14.4083H141.881ZM157.902 4.72495V0.478054H173.688V4.72495H168.019V19.8448H173.688V24.0917H157.902V19.8448H163.572V4.72495H157.902ZM186.885 0.478054L189.653 21.8682H190.254V0.478054H194.712V24.0917H186.007L183.238 2.70156H182.627V24.0917H178.18V0.478054H186.885ZM205.54 16.3983V12.1515H215.657V24.0917H211.61V21.4568H210.999C210.732 22.3388 210.217 23.0763 209.454 23.6692C208.69 24.2621 207.541 24.5586 206.007 24.5586C204.932 24.5586 203.921 24.3585 202.972 23.9583C202.031 23.5506 201.212 22.9503 200.515 22.1572C199.818 21.3568 199.266 20.3636 198.859 19.1777C198.451 17.9993 198.247 16.6244 198.247 15.0531V9.5166C198.247 7.98979 198.469 6.63345 198.914 5.44758C199.351 4.26913 199.955 3.27596 200.726 2.46809C201.505 1.66022 202.435 1.04505 203.517 0.622581C204.591 0.207526 205.781 0 207.086 0C208.442 0 209.646 0.222351 210.699 0.667052C211.759 1.10434 212.659 1.70839 213.4 2.47921C214.141 3.25743 214.705 4.16907 215.09 5.21412C215.468 6.25916 215.657 7.37833 215.657 8.57161V8.98296H211.21V8.57161C211.21 7.15598 210.843 6.08128 210.109 5.34753C209.376 4.62118 208.346 4.25801 207.019 4.25801C205.759 4.25801 204.725 4.67677 203.917 5.51429C203.109 6.35922 202.705 7.8045 202.705 9.85012V14.853C202.705 18.4921 204.188 20.3117 207.152 20.3117C208.486 20.3117 209.494 19.9597 210.176 19.2555C210.865 18.544 211.21 17.5916 211.21 16.3983H205.54Z" fill="#333333"/>
<g clip-path="url(#clip0_330_8)">
<path d="M66.9727 51.893C66.9727 57.1911 66.94 62.4947 66.9727 67.7983C67.0277 68.8093 66.8054 69.816 66.3303 70.7087C65.8551 71.6014 65.1452 72.3458 64.2781 72.8606C61.9217 74.3414 59.5216 75.7509 57.0997 77.1111C55.4633 78.038 53.9251 77.6596 52.8287 76.091C50.2541 72.356 47.7231 68.5716 45.1649 64.8092L36.001 51.2951C35.7937 50.9935 35.581 50.6918 35.3846 50.3792C33.5245 47.3682 33.7482 46.1616 36.0501 43.507C39.0174 40.123 41.8375 36.6074 44.7776 33.1741C46.714 30.8925 48.6668 28.6328 50.6741 26.4225C51.9887 24.9691 53.5214 24.7771 55.2069 25.7644C58.1797 27.4756 61.2071 29.1319 64.1035 30.9528C65.9036 32.0771 67.0709 33.6567 67.0327 36.0096C66.9236 41.2913 66.9727 46.5894 66.9727 51.893Z" fill="#E9C46A"/>
<path d="M14.4713 52.0905V76.0034C14.4713 76.8151 14.6131 77.7036 13.6749 78.1588C12.7367 78.614 12.0385 78.2959 11.2476 77.8352C8.72751 76.3763 6.24562 74.879 3.67646 73.5627C0.900024 72.1367 0.0490922 69.6522 0.0327282 66.8057C-0.0163641 56.9334 0.0327282 47.0612 0 37.2218C0 33.7446 1.49459 31.4301 4.60376 29.9054C6.81958 28.7687 8.97693 27.5203 11.0676 26.1649C11.4285 25.8939 11.8505 25.717 12.2959 25.65C12.7414 25.5831 13.1964 25.628 13.6204 25.781C14.5531 26.1649 14.4713 27.0808 14.4713 27.9035V52.0905Z" fill="#2A9D8F"/>
<path d="M21.066 71.2592C21.066 68.6704 21.1642 66.0762 21.066 63.493C20.9742 62.1622 21.164 60.8269 21.6228 59.5753C22.0816 58.3236 22.7991 57.1839 23.7279 56.2314C24.4589 55.4581 25.1243 54.6244 25.8171 53.8182C27.388 51.9863 29.0899 52.0576 30.4427 54.0705C32.9354 57.7726 35.3846 61.5076 37.861 65.2206C40.8611 69.718 43.8612 74.2044 46.8831 78.7073C48.3231 80.9011 47.974 82.5465 45.754 83.8628C42.6957 85.691 39.6156 87.4698 36.5137 89.1993C35.6072 89.7346 34.5729 90.0118 33.5217 90.0012C32.4705 89.9906 31.4419 89.6925 30.5463 89.1389C28.3062 87.8702 26.0825 86.5703 23.8752 85.2394C22.9888 84.7592 22.2544 84.0382 21.7558 83.1587C21.2572 82.2792 21.0144 81.2764 21.0551 80.2649C21.0988 77.2593 21.066 74.2592 21.066 71.2592Z" fill="#E76F51"/>
<path d="M21.0769 35.5271V23.9491C21.0229 22.9166 21.2567 21.8894 21.7521 20.9834C22.2474 20.0773 22.9847 19.3284 23.8807 18.821C26.2971 17.3731 28.7244 15.9361 31.2172 14.6143C31.9405 14.2166 32.7506 14.0054 33.575 13.9996C34.3994 13.9939 35.2123 14.1938 35.941 14.5814C38.7283 16.0787 41.483 17.7076 44.2103 19.364C45.9776 20.4609 46.2122 21.9801 44.8594 23.5871C41.3302 27.7828 37.7683 31.9456 34.1955 36.1139C30.6227 40.2822 27.0662 44.4505 23.5043 48.6243C23.0515 49.1727 22.5388 49.5786 21.8242 49.3647C21.0169 49.1234 21.0824 48.383 21.0769 47.7193V35.5271Z" fill="#264653"/>
</g>
<defs>
<clipPath id="clip0_330_8">
<rect width="67" height="76" fill="white" transform="translate(0 14)"/>
</clipPath>
</defs>
</svg>
